<svg xmlns="http://www.w3.org/2000/svg" width="1440" height="1478" viewBox="0 0 1440 1478" role="img" aria-labelledby="title desc">
<title id="title">NikhartaRoop System Documentation Page 012</title>
<desc id="desc">Text-preserving SVG conversion of NikhartaRoop System Documentation - Page 012 from NikhartaRoop_SystemDoc.docx.</desc>
<rect width="100%" height="100%" fill="#fffaf6"/>
<text x="64" y="40" font-family="Inter, Noto Sans Devanagari, Arial, sans-serif" font-size="18" font-weight="700" fill="#880E4F">NikhartaRoop System Documentation - Page 012</text>
<g font-family="Noto Sans Devanagari, Inter, Arial, sans-serif" font-size="16" fill="#212121">
<text x="64" y="78"> </text>
<text x="64" y="102">11. Admin Panel Workflow</text>
<text x="64" y="126">11.1 Daily Admin Operations — Morning Routine</text>
<text x="64" y="150">	•	Admin opens Admin Panel on tablet/desktop — sees Dashboard.</text>
<text x="64" y="174">	•	Dashboard shows: Today's 12 bookings, 2 pending confirmations, 1 cancellation request.</text>
<text x="64" y="198">	•	Admin goes to 'Manage Bookings' → clicks 'Pending' tab → confirms 2 bookings.</text>
<text x="64" y="222">	•	WhatsApp confirmation messages auto-sent to both customers.</text>
<text x="64" y="246">	•	Admin checks staff availability — one staff called in sick.</text>
<text x="64" y="270">	•	Admin marks that staff as unavailable → their future slots auto-reassigned.</text>
<text x="64" y="294">	•	Admin sends re-booking WhatsApp message to affected customers.</text>
<text x="64" y="318"> </text>
<text x="64" y="342">11.2 Service Management Workflow</text>
<text x="64" y="366">Task</text>
<text x="64" y="390">Admin Steps</text>
<text x="64" y="414">Real-Time Effect on User App</text>
<text x="64" y="438">Add new service</text>
<text x="64" y="462">Click 'Add Service', fill Hindi+English name, price, duration, category, upload photo, click</text>
<text x="64" y="486">Save</text>
<text x="64" y="510">Service appears in user app within 60 seconds (cache refresh)</text>
<text x="64" y="534">Change service price</text>
<text x="64" y="558">Open service, edit price field, click Update</text>
<text x="64" y="582">New price shown immediately to all users</text>
<text x="64" y="606">Deactivate service</text>
<text x="64" y="630">Toggle 'Active' switch to off</text>
<text x="64" y="654">Service disappears from user-facing service list instantly</text>
<text x="64" y="678">Add seasonal offer</text>
<text x="64" y="702">Go to Offers, create code with validity dates, discount %, applicable services</text>
<text x="64" y="726">Offer banner appears on home page; promo code becomes usable</text>
<text x="64" y="750">Update parlour hours</text>
<text x="64" y="774">Go to Branch Settings, change Open/Close time, click Save</text>
<text x="64" y="798">Slot generation for that branch immediately reflects new hours</text>
<text x="64" y="822"> </text>
<text x="64" y="846">11.3 Booking Management — Admin Powers</text>
<text x="64" y="870">Admin Action</text>
<text x="64" y="894">When Used</text>
<text x="64" y="918">System Impact</text>
<text x="64" y="942">Confirm booking</text>
<text x="64" y="966">Manual confirmation for walk-in or phone bookings</text>
<text x="64" y="990">Status → CONFIRMED, WhatsApp sent to customer</text>
<text x="64" y="1014">Cancel booking</text>
<text x="64" y="1038">Service unavailable, staff absent, emergency</text>
<text x="64" y="1062">Status → CANCELLED, refund initiated, customer notified</text>
<text x="64" y="1086">Reschedule booking</text>
<text x="64" y="1110">Customer requests via phone or WhatsApp</text>
<text x="64" y="1134">Admin cancels old, creates new booking on behalf of user</text>
<text x="64" y="1158">Mark as completed</text>
<text x="64" y="1182">After service is done</text>
<text x="64" y="1206">Status → COMPLETED, review request sent to customer</text>
<text x="64" y="1230">Mark as no-show</text>
<text x="64" y="1254">Customer didn't arrive</text>
<text x="64" y="1278">Status → NO_SHOW, loyalty points deducted from customer</text>
<text x="64" y="1302">Add walk-in booking</text>
<text x="64" y="1326">Customer walks in without prior booking</text>
<text x="64" y="1350">Admin creates booking directly from Admin Panel</text>
<text x="64" y="1374"> </text>
</g>
</svg>
