<svg xmlns="http://www.w3.org/2000/svg" width="1440" height="900" viewBox="0 0 1440 900" role="img" aria-labelledby="title desc">
<title id="title">NikhartaRoop System Documentation Page 001</title>
<desc id="desc">Text-preserving SVG conversion of NikhartaRoop System Documentation - Page 001 from NikhartaRoop_SystemDoc.docx.</desc>
<rect width="100%" height="100%" fill="#fffaf6"/>
<text x="64" y="40" font-family="Inter, Noto Sans Devanagari, Arial, sans-serif" font-size="18" font-weight="700" fill="#880E4F">NikhartaRoop System Documentation - Page 001</text>
<g font-family="Noto Sans Devanagari, Inter, Arial, sans-serif" font-size="16" fill="#212121">
<text x="64" y="78"> </text>
<text x="64" y="102">💄 निखरता रूप</text>
<text x="64" y="126">Nikharta Roop</text>
<text x="64" y="150"> </text>
<text x="64" y="174">Beauty Parlour — Complete System Documentation</text>
<text x="64" y="198"> </text>
<text x="64" y="222">Production-Ready Technical &amp; Product Handoff Document</text>
<text x="64" y="246"> </text>
<text x="64" y="270">Document Property</text>
<text x="64" y="294">Details</text>
<text x="64" y="318">Document Version</text>
<text x="64" y="342">v1.0 — Initial Release</text>
<text x="64" y="366">Business Name</text>
<text x="64" y="390">Nikharta Roop (निखरता रूप)</text>
<text x="64" y="414">Business Type</text>
<text x="64" y="438">Beauty Parlour — Web &amp; Mobile Application</text>
<text x="64" y="462">Target Market</text>
<text x="64" y="486">Hindi-Speaking Users across India</text>
<text x="64" y="510">Platform Priority</text>
<text x="64" y="534">Mobile-First (Android &amp; iOS)</text>
<text x="64" y="558">Prepared By</text>
<text x="64" y="582">Senior Full-Stack Architect</text>
<text x="64" y="606">Date</text>
<text x="64" y="630">April 2026</text>
<text x="64" y="654">Status</text>
<text x="64" y="678">Ready for Development Handoff</text>
<text x="64" y="702"> </text>
</g>
</svg>
