<svg xmlns="http://www.w3.org/2000/svg" width="1440" height="1478" viewBox="0 0 1440 1478" role="img" aria-labelledby="title desc">
<title id="title">NikhartaRoop System Documentation Page 016</title>
<desc id="desc">Text-preserving SVG conversion of NikhartaRoop System Documentation - Page 016 from NikhartaRoop_SystemDoc.docx.</desc>
<rect width="100%" height="100%" fill="#fffaf6"/>
<text x="64" y="40" font-family="Inter, Noto Sans Devanagari, Arial, sans-serif" font-size="18" font-weight="700" fill="#880E4F">NikhartaRoop System Documentation - Page 016</text>
<g font-family="Noto Sans Devanagari, Inter, Arial, sans-serif" font-size="16" fill="#212121">
<text x="64" y="78"> </text>
<text x="64" y="102">Appendix: Quick Reference Glossary</text>
<text x="64" y="126">Term</text>
<text x="64" y="150">Explanation</text>
<text x="64" y="174">JWT</text>
<text x="64" y="198">JSON Web Token — a compact, secure way to carry user identity between client and server</text>
<text x="64" y="222">without storing session on the server.</text>
<text x="64" y="246">OTP</text>
<text x="64" y="270">One-Time Password — a 6-digit code sent via SMS for secure, passwordless login.</text>
<text x="64" y="294">Redis</text>
<text x="64" y="318">An in-memory database used for fast temporary storage — used for OTPs, caches, and session</text>
<text x="64" y="342">management.</text>
<text x="64" y="366">REST API</text>
<text x="64" y="390">A standard way for the frontend and backend to communicate using HTTP methods (GET, POST,</text>
<text x="64" y="414">PUT, DELETE).</text>
<text x="64" y="438">PostgreSQL</text>
<text x="64" y="462">A powerful open-source relational database that stores all business data.</text>
<text x="64" y="486">RBAC</text>
<text x="64" y="510">Role-Based Access Control — a system where each user's role determines what actions they can</text>
<text x="64" y="534">perform.</text>
<text x="64" y="558">SSR</text>
<text x="64" y="582">Server-Side Rendering — Next.js renders the page on the server before sending to the</text>
<text x="64" y="606">browser, improving SEO and load speed.</text>
<text x="64" y="630">ISR</text>
<text x="64" y="654">Incremental Static Regeneration — Next.js regenerates static pages in the background at set</text>
<text x="64" y="678">intervals.</text>
<text x="64" y="702">CDN</text>
<text x="64" y="726">Content Delivery Network — serves files (images, JS) from servers closest to the user,</text>
<text x="64" y="750">reducing load time.</text>
<text x="64" y="774">Webhook</text>
<text x="64" y="798">A URL that Razorpay or other services call automatically when an event (like payment</text>
<text x="64" y="822">success) occurs.</text>
<text x="64" y="846">FCM</text>
<text x="64" y="870">Firebase Cloud Messaging — Google's service for sending push notifications to Android and</text>
<text x="64" y="894">iOS apps.</text>
<text x="64" y="918">Razorpay</text>
<text x="64" y="942">India's most popular payment gateway — supports UPI, cards, net banking, and wallets.</text>
<text x="64" y="966">MSG91</text>
<text x="64" y="990">An Indian SMS service provider used for OTP delivery with high delivery rates in India.</text>
<text x="64" y="1014">LCP</text>
<text x="64" y="1038">Largest Contentful Paint — measures how quickly the main visible content of a web page</text>
<text x="64" y="1062">loads.</text>
<text x="64" y="1086">CLS</text>
<text x="64" y="1110">Cumulative Layout Shift — measures visual stability (elements not jumping around on the</text>
<text x="64" y="1134">page).</text>
<text x="64" y="1158">Soft Delete</text>
<text x="64" y="1182">Instead of actually deleting a database record, setting is_active = false. Preserves</text>
<text x="64" y="1206">history.</text>
<text x="64" y="1230">Race Condition</text>
<text x="64" y="1254">When two users try to do the same thing at the same time — e.g., booking the same slot</text>
<text x="64" y="1278">simultaneously.</text>
<text x="64" y="1302"> </text>
<text x="64" y="1326">— End of Document —</text>
<text x="64" y="1350">💄 Nikharta Roop — System Documentation v1.0</text>
<text x="64" y="1374"> </text>
</g>
</svg>
